Normalized EMG Linear Envelopes
nRows=286
nColumns=4

endheader
time	 med_gas_r	  soleus_r	 tib_ant_r	
3.75907	  0.001577	  0.002507	  0.001686	
3.79234	  0.001561	  0.002557	  0.001752	
3.8256	  0.001551	  0.002608	  0.001827	
3.85887	  0.001550	  0.002661	  0.001912	
3.89214	  0.001559	  0.002714	  0.002004	
3.9254	  0.001573	  0.002761	  0.002100	
3.95867	  0.001585	  0.002798	  0.002193	
3.99194	  0.001586	  0.002819	  0.002277	
4.0252	  0.001576	  0.002823	  0.002341	
4.05847	  0.001560	  0.002811	  0.002371	
4.09173	  0.001556	  0.002783	  0.002357	
4.125	  0.001585	  0.002745	  0.002296	
4.15827	  0.001666	  0.002699	  0.002195	
4.19153	  0.001816	  0.002653	  0.002072	
4.2248	  0.002049	  0.002612	  0.001951	
4.25806	  0.002371	  0.002581	  0.001853	
4.29133	  0.002761	  0.002562	  0.001797	
4.3246	  0.003166	  0.002556	  0.001793	
4.35786	  0.003497	  0.002564	  0.001842	
4.39113	  0.003668	  0.002583	  0.001938	
4.4244	  0.003631	  0.002612	  0.002065	
4.45766	  0.003404	  0.002642	  0.002199	
4.49093	  0.003055	  0.002664	  0.002312	
4.52419	  0.002669	  0.002670	  0.002383	
4.55746	  0.002313	  0.002657	  0.002405	
4.59073	  0.002021	  0.002628	  0.002383	
4.62399	  0.001800	  0.002588	  0.002331	
4.65726	  0.001645	  0.002546	  0.002263	
4.69052	  0.001546	  0.002512	  0.002186	
4.72379	  0.001498	  0.002495	  0.002100	
4.75706	  0.001496	  0.002500	  0.001998	
4.79032	  0.001535	  0.002526	  0.001872	
4.82359	  0.001611	  0.002565	  0.001719	
4.85685	  0.001715	  0.002606	  0.001541	
4.89012	  0.001840	  0.002643	  0.001352	
4.92339	  0.001976	  0.002671	  0.001178	
4.95665	  0.002107	  0.002696	  0.001073	
4.98992	  0.002212	  0.002728	  0.001129	
5.02319	  0.002274	  0.002792	  0.001471	
5.05645	  0.002287	  0.002916	  0.002239	
5.08972	  0.002260	  0.003132	  0.003582	
5.12298	  0.002217	  0.003478	  0.005686	
5.15625	  0.002188	  0.003998	  0.008818	
5.18952	  0.002199	  0.004751	  0.013307	
5.22278	  0.002269	  0.005777	  0.019371	
5.25605	  0.002400	  0.007063	  0.026849	
5.28931	  0.002569	  0.008500	  0.035032	
5.32258	  0.002741	  0.009899	  0.042837	
5.35585	  0.002884	  0.011073	  0.049338	
5.38911	  0.002999	  0.011950	  0.054317	
5.42238	  0.003115	  0.012630	  0.058437	
5.45565	  0.003279	  0.013340	  0.062880	
5.48891	  0.003526	  0.014314	  0.068729	
5.52218	  0.003866	  0.015669	  0.076464	
5.55544	  0.004292	  0.017363	  0.085759	
5.58871	  0.004778	  0.019245	  0.095573	
5.62198	  0.005283	  0.021131	  0.104465	
5.65524	  0.005754	  0.022861	  0.111110	
5.68851	  0.006135	  0.024324	  0.114849	
5.72177	  0.006391	  0.025465	  0.116004	
5.75504	  0.006520	  0.026301	  0.115780	
5.78831	  0.006556	  0.026914	  0.115796	
5.82157	  0.006544	  0.027409	  0.117479	
5.85484	  0.006519	  0.027855	  0.121553	
5.8881	  0.006502	  0.028250	  0.127841	
5.92137	  0.006506	  0.028575	  0.135444	
5.95464	  0.006555	  0.028890	  0.143184	
5.9879	  0.006684	  0.029396	  0.150075	
6.02117	  0.006933	  0.030399	  0.155619	
6.05444	  0.007329	  0.032218	  0.159881	
6.0877	  0.007883	  0.035078	  0.163415	
6.12097	  0.008591	  0.039034	  0.167090	
6.15423	  0.009436	  0.043926	  0.171835	
6.1875	  0.010384	  0.049403	  0.178423	
6.22077	  0.011398	  0.055031	  0.187454	
6.25403	  0.012457	  0.060499	  0.199520	
6.2873	  0.013584	  0.065790	  0.215335	
6.32056	  0.014835	  0.071191	  0.235608	
6.35383	  0.016260	  0.077096	  0.260732	
6.3871	  0.017860	  0.083759	  0.290618	
6.42036	  0.019576	  0.091191	  0.324821	
6.45363	  0.021329	  0.099242	  0.362663	
6.4869	  0.023055	  0.107724	  0.403038	
6.52016	  0.024730	  0.116393	  0.444021	
6.55343	  0.026349	  0.124809	  0.482876	
6.58669	  0.027896	  0.132287	  0.516781	
6.61996	  0.029343	  0.138076	  0.543885	
6.65323	  0.030660	  0.141680	  0.563912	
6.68649	  0.031844	  0.143105	  0.577946	
6.71976	  0.032936	  0.142919	  0.587740	
6.75302	  0.034012	  0.142088	  0.595033	
6.78629	  0.035123	  0.141597	  0.601064	
6.81956	  0.036214	  0.141964	  0.606206	
6.85282	  0.037106	  0.142951	  0.609826	
6.88609	  0.037586	  0.143787	  0.610696	
6.91935	  0.037575	  0.143813	  0.608015	
6.95262	  0.037239	  0.143027	  0.602536	
6.98589	  0.036913	  0.142070	  0.596998	
7.01915	  0.036912	  0.141673	  0.595457	
7.05242	  0.037375	  0.142113	  0.601666	
7.08569	  0.038243	  0.143065	  0.617062	
7.11895	  0.039347	  0.143812	  0.639310	
7.15222	  0.040479	  0.143549	  0.662510	
7.18548	  0.041405	  0.141647	  0.679566	
7.21875	  0.041874	  0.137897	  0.685621	
7.25202	  0.041679	  0.132684	  0.680283	
7.28528	  0.040748	  0.126957	  0.667076	
7.31855	  0.039204	  0.121928	  0.650828	
7.35181	  0.037347	  0.118691	  0.635197	
7.38508	  0.035572	  0.117980	  0.621924	
7.41835	  0.034247	  0.120090	  0.611475	
7.45161	  0.033595	  0.124840	  0.603744	
7.48488	  0.033637	  0.131535	  0.598058	
7.51815	  0.034227	  0.139081	  0.592857	
7.55141	  0.035147	  0.146289	  0.585950	
7.58468	  0.036179	  0.152165	  0.575606	
7.61794	  0.037086	  0.155984	  0.561774	
7.65121	  0.037587	  0.157177	  0.546302	
7.68448	  0.037411	  0.155318	  0.531876	
7.71774	  0.036426	  0.150314	  0.520591	
7.75101	  0.034755	  0.142626	  0.513281	
7.78427	  0.032758	  0.133314	  0.509697	
7.81754	  0.030880	  0.123789	  0.508717	
7.85081	  0.029458	  0.115415	  0.508182	
7.88407	  0.028600	  0.109105	  0.504979	
7.91734	  0.028192	  0.105121	  0.496163	
7.9506	  0.028020	  0.103173	  0.480774	
7.98387	  0.027904	  0.102757	  0.460860	
8.01714	  0.027769	  0.103489	  0.440719	
8.0504	  0.027621	  0.105229	  0.424832	
8.08367	  0.027488	  0.107931	  0.416008	
8.11694	  0.027388	  0.111425	  0.414823	
8.1502	  0.027344	  0.115336	  0.420244	
8.18347	  0.027406	  0.119194	  0.430640	
8.21673	  0.027645	  0.122599	  0.444503	
8.25	  0.028095	  0.125308	  0.460667	
8.28327	  0.028711	  0.127204	  0.478205	
8.31653	  0.029366	  0.128256	  0.496251	
8.3498	  0.029912	  0.128523	  0.513985	
8.38306	  0.030267	  0.128195	  0.530825	
8.41633	  0.030461	  0.127634	  0.546628	
8.4496	  0.030623	  0.127303	  0.561579	
8.48286	  0.030901	  0.127593	  0.575660	
8.51613	  0.031368	  0.128619	  0.588086	
8.5494	  0.031972	  0.130135	  0.597322	
8.58266	  0.032561	  0.131703	  0.601778	
8.61593	  0.032968	  0.133033	  0.600527	
8.64919	  0.033118	  0.134284	  0.593467	
8.68246	  0.033083	  0.136072	  0.581153	
8.71573	  0.033057	  0.139131	  0.564916	
8.74899	  0.033253	  0.143834	  0.547266	
8.78226	  0.033788	  0.149898	  0.531766	
8.81552	  0.034627	  0.156465	  0.521842	
8.84879	  0.035636	  0.162540	  0.519148	
8.88206	  0.036710	  0.167546	  0.522829	
8.91532	  0.037877	  0.171695	  0.530410	
8.94859	  0.039295	  0.175877	  0.539582	
8.98185	  0.041121	  0.181029	  0.549305	
9.01512	  0.043329	  0.187326	  0.559366	
9.04839	  0.045630	  0.193769	  0.569210	
9.08165	  0.047555	  0.198574	  0.577662	
9.11492	  0.048680	  0.200148	  0.583979	
9.14819	  0.048815	  0.197917	  0.588867	
9.18145	  0.048054	  0.192406	  0.593975	
9.21472	  0.046661	  0.184668	  0.600198	
9.24798	  0.044929	  0.175699	  0.606543	
9.28125	  0.043096	  0.166310	  0.610757	
9.31452	  0.041357	  0.157328	  0.611039	
9.34778	  0.039895	  0.149706	  0.607296	
9.38105	  0.038897	  0.144408	  0.601043	
9.41431	  0.038531	  0.142261	  0.594317	
9.44758	  0.038912	  0.143858	  0.588537	
9.48085	  0.040051	  0.149392	  0.584033	
9.51411	  0.041799	  0.158305	  0.580345	
9.54738	  0.043818	  0.169020	  0.576904	
9.58065	  0.045628	  0.179129	  0.573479	
9.61391	  0.046748	  0.186173	  0.570108	
9.64718	  0.046889	  0.188645	  0.566833	
9.68044	  0.046084	  0.186645	  0.563743	
9.71371	  0.044674	  0.181814	  0.561369	
9.74698	  0.043164	  0.176641	  0.560923	
9.78024	  0.042010	  0.173527	  0.563961	
9.81351	  0.041461	  0.173924	  0.571679	
9.84677	  0.041477	  0.177805	  0.584446	
9.88004	  0.041771	  0.183661	  0.601805	
9.91331	  0.041962	  0.189132	  0.622463	
9.94657	  0.041758	  0.192024	  0.643794	
9.97984	  0.041076	  0.191092	  0.661095	
10.0131	  0.040050	  0.186175	  0.667640	
10.0464	  0.038966	  0.177756	  0.656175	
10.0796	  0.038223	  0.166481	  0.621367	
10.1129	  0.038329	  0.153021	  0.561977	
10.1462	  0.039961	  0.138223	  0.481785	
10.1794	  0.043963	  0.123265	  0.388921	
10.2127	  0.051112	  0.109561	  0.293779	
10.246	  0.061543	  0.098417	  0.206187	
10.2792	  0.074060	  0.090647	  0.132985	
10.3125	  0.085997	  0.086431	  0.077038	
10.3458	  0.094117	  0.085523	  0.037810	
10.379	  0.096176	  0.087550	  0.012775	
10.4123	  0.092044	  0.092045	 -0.001273	
10.4456	  0.083449	  0.098176	 -0.007440	
10.4788	  0.072636	  0.104555	 -0.008411	
10.5121	  0.061155	  0.109477	 -0.006344	
10.5454	  0.049643	  0.111521	 -0.002850	
10.5786	  0.038415	  0.110105	  0.000948	
10.6119	  0.027992	  0.105618	  0.004322	
10.6452	  0.019077	  0.099096	  0.006851	
10.6784	  0.012179	  0.091664	  0.008380	
10.7117	  0.007353	  0.084073	  0.008982	
10.745	  0.004273	  0.076564	  0.008885	
10.7782	  0.002472	  0.069036	  0.008373	
10.8115	  0.001537	  0.061329	  0.007697	
10.8448	  0.001159	  0.053427	  0.007016	
10.878	  0.001115	  0.045492	  0.006398	
10.9113	  0.001245	  0.037784	  0.005847	
10.9446	  0.001435	  0.030573	  0.005340	
10.9778	  0.001619	  0.024110	  0.004856	
11.0111	  0.001766	  0.018607	  0.004385	
11.0444	  0.001869	  0.014210	  0.003924	
11.0776	  0.001932	  0.010949	  0.003479	
11.1109	  0.001961	  0.008719	  0.003066	
11.1442	  0.001960	  0.007300	  0.002707	
11.1774	  0.001934	  0.006412	  0.002421	
11.2107	  0.001888	  0.005787	  0.002224	
11.244	  0.001829	  0.005231	  0.002124	
11.2772	  0.001767	  0.004661	  0.002123	
11.3105	  0.001712	  0.004089	  0.002204	
11.3437	  0.001670	  0.003569	  0.002326	
11.377	  0.001645	  0.003151	  0.002431	
11.4103	  0.001637	  0.002855	  0.002462	
11.4435	  0.001642	  0.002671	  0.002393	
11.4768	  0.001658	  0.002575	  0.002238	
11.5101	  0.001679	  0.002533	  0.002037	
11.5433	  0.001701	  0.002515	  0.001837	
11.5766	  0.001719	  0.002500	  0.001671	
11.6099	  0.001734	  0.002480	  0.001558	
11.6431	  0.001746	  0.002456	  0.001504	
11.6764	  0.001758	  0.002437	  0.001507	
11.7097	  0.001768	  0.002428	  0.001561	
11.7429	  0.001776	  0.002430	  0.001648	
11.7762	  0.001779	  0.002440	  0.001744	
11.8095	  0.001776	  0.002454	  0.001825	
11.8427	  0.001772	  0.002467	  0.001876	
11.876	  0.001774	  0.002473	  0.001896	
11.9093	  0.001787	  0.002471	  0.001889	
11.9425	  0.001817	  0.002463	  0.001859	
11.9758	  0.001862	  0.002453	  0.001807	
12.0091	  0.001916	  0.002448	  0.001732	
12.0423	  0.001967	  0.002454	  0.001644	
12.0756	  0.002002	  0.002470	  0.001563	
12.1089	  0.002013	  0.002489	  0.001505	
12.1421	  0.001998	  0.002500	  0.001476	
12.1754	  0.001962	  0.002497	  0.001471	
12.2087	  0.001915	  0.002484	  0.001483	
12.2419	  0.001864	  0.002471	  0.001508	
12.2752	  0.001816	  0.002467	  0.001545	
12.3085	  0.001774	  0.002470	  0.001591	
12.3417	  0.001739	  0.002475	  0.001636	
12.375	  0.001713	  0.002473	  0.001666	
12.4083	  0.001695	  0.002462	  0.001670	
12.4415	  0.001685	  0.002449	  0.001647	
12.4748	  0.001680	  0.002439	  0.001606	
12.5081	  0.001675	  0.002438	  0.001560	
12.5413	  0.001663	  0.002446	  0.001524	
12.5746	  0.001641	  0.002462	  0.001506	
12.6079	  0.001607	  0.002482	  0.001511	
12.6411	  0.001564	  0.002503	  0.001539	
12.6744	  0.001521	  0.002523	  0.001582	
12.7077	  0.001485	  0.002544	  0.001629	
12.7409	  0.001464	  0.002572	  0.001665	
12.7742	  0.001456	  0.002612	  0.001682	
12.8075	  0.001456	  0.002666	  0.001680	
12.8407	  0.001456	  0.002735	  0.001666	
12.874	  0.001452	  0.002812	  0.001650	
12.9073	  0.001443	  0.002883	  0.001641	
12.9405	  0.001432	  0.002933	  0.001639	
12.9738	  0.001426	  0.002949	  0.001643	
13.0071	  0.001429	  0.002931	  0.001650	
13.0403	  0.001447	  0.002882	  0.001656	
13.0736	  0.001484	  0.002809	  0.001660	
13.1069	  0.001545	  0.002716	  0.001660	
13.1401	  0.001629	  0.002604	  0.001651	
13.1734	  0.001736	  0.002477	  0.001630	
13.2067	  0.001856	  0.002344	  0.001600	
13.2399	  0.001981	  0.002212	  0.001562	
